<?xml version="1.0" encoding="utf-8"?>
<?xml-stylesheet type="text/xsl" href="rss1.xsl"?>
<rss version="2.0" xmlns:atom="http://www.w3.org/2005/Atom" xmlns:content="http://purl.org/rss/1.0/modules/content/" xmlns:dc="http://purl.org/dc/elements/1.1/" xmlns:media="http://search.yahoo.com/mrss/">
<channel>
 <title>Getty</title>
 <link>http://www.gettyimg.com/</link>
 <atom:link href="http://www.gettyimg.com/" rel="self" type="application/rss+xml" />

 
                <item>
                <title><![CDATA[【Bugs!】PRIMROSE - Freyja [Bugs! 4K]]]></title>
                <link><![CDATA[https://sharemania.us/threads/primrose-freyja-bugs-4k.249130/]]></link>
                <description><![CDATA[<article>
<blockquote class="messageText SelectQuoteContainer ugc baseHtml">
<img src="https://img.youtube.com/vi/AnrawkiZtn8/maxresdefault.jpg" class="bbCodeImage LbImage" alt="[​IMG]" data-url="https://img.youtube.com/vi/AnrawkiZtn8/maxresdefault.jpg" style=""> <br>
<b>HOST: <span style="text-decoration: underline">GOOGLE DRIVE!</span></b><br>
<div class="bbCodeBlock bbCodeVfcHH HiddenContent">
<div class="attribution type">Hidden Content:</div>
<blockquote>You must reply before you can see the hidden data contained here.</blockquote>
</div>
<div class="messageTextEndMarker">&nbsp;</div>
</blockquote>
</article>]]></description>
                <author><![CDATA[edenium0]]></author>
                </item>

                
                <item>
                <title><![CDATA[【Requests】[REQ AUD] - Red Hot Chili Peppers "Black Summer" RB4 Stems]]></title>
                <link><![CDATA[https://sharemania.us/threads/red-hot-chili-peppers-black-summer-rb4-stems.249129/]]></link>
                <description><![CDATA[<article>
<blockquote class="messageText SelectQuoteContainer ugc baseHtml">
was looking for stems from this track. I know it's still available on PS store and as well as the xbox store. but not sure how to rip them
<div class="messageTextEndMarker">&nbsp;</div>
</blockquote>
</article>]]></description>
                <author><![CDATA[Jake0895]]></author>
                </item>

                
                <item>
                <title><![CDATA[【SD】Cassandra Steen Feat. Adel Tawil - Stadt (2009, VOB, German Pop)]]></title>
                <link><![CDATA[https://sharemania.us/threads/cassandra-steen-feat-adel-tawil-stadt-2009-vob-german-pop.249127/]]></link>
                <description><![CDATA[<article>
<blockquote class="messageText SelectQuoteContainer ugc baseHtml">
Cassandra Steen Feat. Adel Tawil - Stadt (2009, VOB, German Pop)<br>
<br>
<br>
<img src="https://images2.imgbox.com/9b/72/WMXcyfNy_o.jpg" class="bbCodeImage LbImage" alt="[​IMG]" data-url="https://images2.imgbox.com/9b/72/WMXcyfNy_o.jpg" style=""> <br>
<br>
<span data-s9e-mediaembed="youtube" style="display:inline-block;width:100%;max-width:640px"><span style="display:block;overflow:hidden;position:relative;padding-bottom:56.25%"><iframe allowfullscreen="" loading="lazy" scrolling="no" style="background:url(https://i.ytimg.com/vi/ltQNeihjqB0/hqdefault.jpg) 50% 50% / cover;border:0;height:100%;left:0;position:absolute;width:100%" src="https://www.youtube.com/embed/ltQNeihjqB0"></iframe></span></span><br>
<br>
<div class="bbCodeBlock bbCodeVfcHH HiddenContent">
<div class="attribution type">Hidden Content:</div>
<blockquote>You must reply before you can see the hidden data contained here.</blockquote>
</div>Greets, 3rsin.
<div class="messageTextEndMarker">&nbsp;</div>
</blockquote>
</article>]]></description>
                <author><![CDATA[fritching]]></author>
                </item>

                
                <item>
                <title><![CDATA[【Apple Music】WEB-RiP - Elettra Lamborghini &amp; Childsplay - Tócame (feat. Pitbull) (1080p)]]></title>
                <link><![CDATA[https://sharemania.us/threads/elettra-lamborghini-childsplay-t%C3%B3came-feat-pitbull-1080p.249128/]]></link>
                <description><![CDATA[<article>
<blockquote class="messageText SelectQuoteContainer ugc baseHtml">
<img src="https://i.postimg.cc/jSpH0Ggg/Elettra-Lamborghini-Childsplay-T-came-feat-Pitbull-mp4.jpg" class="bbCodeImage LbImage" alt="[​IMG]" data-url="https://i.postimg.cc/jSpH0Ggg/Elettra-Lamborghini-Childsplay-T-came-feat-Pitbull-mp4.jpg" style=""><br>
<br>
<div class="bbCodeBlock bbCodeCode">
<div class="type">Code:</div>
<pre>General
Complete name                  : G:\Новая папка\Elettra Lamborghini &amp; Childsplay - Tócame (feat. Pitbull).mp4
Format                         : MPEG-4
Format profile                 : Base Media
Codec ID                       : isom (isom/iso2/avc1/mp41)
File size                      : 172 MiB
Duration                       : 2 min 41 s
Overall bit rate               : 8 908 kb/s
Frame rate                     : 23.976 FPS
Movie name                     : Tócame (feat. Pitbull)
Performer                      : Elettra Lamborghini &amp; Childsplay
Genre                          : Latin
ContentType                    : Music Video
Recorded date                  : 2019-07-02 07:00:00 UTC
Writing application            : Lavf56.30.100
Copyright                      : An Island Records release; ℗ 2019 Universal Music Italia Srl

Video
ID                             : 1
Format                         : AVC
Format/Info                    : Advanced Video Codec
Format profile                 : High@L4.1
Format settings                : CABAC / 4 Ref Frames
Format settings, CABAC         : Yes
Format settings, Reference fra : 4 frames
Format settings, Slice count   : 8 slices per frame
Codec ID                       : avc1
Codec ID/Info                  : Advanced Video Coding
Duration                       : 2 min 41 s
Bit rate                       : 8 654 kb/s
Width                          : 1 920 pixels
Height                         : 1 078 pixels
Display aspect ratio           : 16:9
Frame rate mode                : Variable
Frame rate                     : 23.976 FPS
Minimum frame rate             : 23.976 FPS
Maximum frame rate             : 24.896 FPS
Color space                    : YUV
Chroma subsampling             : 4:2:0
Bit depth                      : 8 bits
Scan type                      : Progressive
Bits/(Pixel*Frame)             : 0.174
Stream size                    : 167 MiB (97%)
Color range                    : Limited
Color primaries                : BT.709
Transfer characteristics       : BT.709
Matrix coefficients            : BT.709
Codec configuration box        : avcC

Audio
ID                             : 2
Format                         : AAC LC
Format/Info                    : Advanced Audio Codec Low Complexity
Codec ID                       : mp4a-40-2
Duration                       : 2 min 41 s
Duration_LastFrame             : -4 ms
Bit rate mode                  : Constant
Bit rate                       : 251 kb/s
Channel(s)                     : 2 channels
Channel layout                 : L R
Sampling rate                  : 48.0 kHz
Frame rate                     : 46.875 FPS (1024 SPF)
Compression mode               : Lossy
Stream size                    : 4.84 MiB (3%)
Default                        : Yes
Alternate group                : 1

</pre>
</div>
<div class="bbCodeBlock bbCodeVfcHH HiddenContent">
<div class="attribution type">Hidden Content:</div>
<blockquote>You must either reply or click 'Like' to see the hidden information contained here.</blockquote>
</div>
<div class="messageTextEndMarker">&nbsp;</div>
</blockquote>
</article>]]></description>
                <author><![CDATA[vitalya3]]></author>
                </item>

                </channel></rss>